<mxfile host="app.diagrams.net" agent="Mozilla/5.0 (Windows NT 10.0; Win64; x64) AppleWebKit/537.36 (KHTML, like Gecko) Chrome/137.0.0.0 Safari/537.36" version="27.1.4">
  <diagram name="‫עמוד-1‬" id="LOa2TSwk760_7nA3Xr0g">
    <mxGraphModel dx="2108" dy="708" grid="0" gridSize="10" guides="1" tooltips="1" connect="1" arrows="1" fold="1" page="0" pageScale="1" pageWidth="827" pageHeight="1169" background="none" math="0" shadow="0">
      <root>
        <mxCell id="0" />
        <mxCell id="1" parent="0" />
        <mxCell id="ni58W3g7qlgSycT5b25J-214" style="edgeStyle=orthogonalEdgeStyle;rounded=0;orthogonalLoop=1;jettySize=auto;html=1;exitX=1;exitY=0.5;exitDx=0;exitDy=0;curved=1;entryX=1;entryY=0.5;entryDx=0;entryDy=0;" parent="1" source="ni58W3g7qlgSycT5b25J-117" target="ni58W3g7qlgSycT5b25J-117" edge="1">
          <mxGeometry relative="1" as="geometry">
            <mxPoint x="265" y="360" as="targetPoint" />
            <Array as="points">
              <mxPoint x="191" y="445" />
              <mxPoint x="266" y="445" />
              <mxPoint x="266" y="360" />
              <mxPoint x="191" y="360" />
            </Array>
          </mxGeometry>
        </mxCell>
        <mxCell id="ni58W3g7qlgSycT5b25J-215" value="space&lt;div&gt;new line&lt;/div&gt;" style="edgeLabel;html=1;align=center;verticalAlign=middle;resizable=0;points=[];" parent="ni58W3g7qlgSycT5b25J-214" vertex="1" connectable="0">
          <mxGeometry x="-0.0121" y="-3" relative="1" as="geometry">
            <mxPoint y="1" as="offset" />
          </mxGeometry>
        </mxCell>
        <mxCell id="ni58W3g7qlgSycT5b25J-217" style="edgeStyle=orthogonalEdgeStyle;rounded=0;orthogonalLoop=1;jettySize=auto;html=1;exitX=1;exitY=1;exitDx=0;exitDy=0;entryX=0;entryY=0;entryDx=0;entryDy=0;curved=1;" parent="1" source="ni58W3g7qlgSycT5b25J-117" target="ni58W3g7qlgSycT5b25J-216" edge="1">
          <mxGeometry relative="1" as="geometry" />
        </mxCell>
        <mxCell id="ni58W3g7qlgSycT5b25J-218" value="!" style="edgeLabel;html=1;align=center;verticalAlign=middle;resizable=0;points=[];" parent="ni58W3g7qlgSycT5b25J-217" vertex="1" connectable="0">
          <mxGeometry x="-0.2569" y="-13" relative="1" as="geometry">
            <mxPoint as="offset" />
          </mxGeometry>
        </mxCell>
        <mxCell id="ni58W3g7qlgSycT5b25J-223" style="edgeStyle=orthogonalEdgeStyle;rounded=0;orthogonalLoop=1;jettySize=auto;html=1;exitX=0.5;exitY=1;exitDx=0;exitDy=0;entryX=0.5;entryY=0;entryDx=0;entryDy=0;curved=1;" parent="1" source="ni58W3g7qlgSycT5b25J-117" target="ni58W3g7qlgSycT5b25J-222" edge="1">
          <mxGeometry relative="1" as="geometry" />
        </mxCell>
        <mxCell id="ni58W3g7qlgSycT5b25J-224" value="&amp;gt;" style="edgeLabel;html=1;align=center;verticalAlign=middle;resizable=0;points=[];" parent="ni58W3g7qlgSycT5b25J-223" vertex="1" connectable="0">
          <mxGeometry x="0.0576" y="2" relative="1" as="geometry">
            <mxPoint as="offset" />
          </mxGeometry>
        </mxCell>
        <mxCell id="ni58W3g7qlgSycT5b25J-230" style="edgeStyle=orthogonalEdgeStyle;rounded=0;orthogonalLoop=1;jettySize=auto;html=1;exitX=0.5;exitY=1;exitDx=0;exitDy=0;entryX=0.5;entryY=0;entryDx=0;entryDy=0;curved=1;" parent="1" source="ni58W3g7qlgSycT5b25J-117" target="ni58W3g7qlgSycT5b25J-229" edge="1">
          <mxGeometry relative="1" as="geometry" />
        </mxCell>
        <mxCell id="ni58W3g7qlgSycT5b25J-232" value="&amp;lt;" style="edgeLabel;html=1;align=center;verticalAlign=middle;resizable=0;points=[];" parent="ni58W3g7qlgSycT5b25J-230" vertex="1" connectable="0">
          <mxGeometry x="-0.0303" relative="1" as="geometry">
            <mxPoint as="offset" />
          </mxGeometry>
        </mxCell>
        <mxCell id="ni58W3g7qlgSycT5b25J-238" style="edgeStyle=orthogonalEdgeStyle;rounded=0;orthogonalLoop=1;jettySize=auto;html=1;exitX=0;exitY=0.5;exitDx=0;exitDy=0;entryX=1;entryY=0.5;entryDx=0;entryDy=0;elbow=vertical;curved=1;" parent="1" source="ni58W3g7qlgSycT5b25J-117" target="ni58W3g7qlgSycT5b25J-237" edge="1">
          <mxGeometry relative="1" as="geometry" />
        </mxCell>
        <mxCell id="ni58W3g7qlgSycT5b25J-239" value="~" style="edgeLabel;html=1;align=center;verticalAlign=middle;resizable=0;points=[];" parent="ni58W3g7qlgSycT5b25J-238" vertex="1" connectable="0">
          <mxGeometry x="-0.0737" relative="1" as="geometry">
            <mxPoint as="offset" />
          </mxGeometry>
        </mxCell>
        <mxCell id="ni58W3g7qlgSycT5b25J-117" value="q0" style="ellipse;whiteSpace=wrap;html=1;aspect=fixed;" parent="1" vertex="1">
          <mxGeometry x="111" y="374" width="80" height="80" as="geometry" />
        </mxCell>
        <mxCell id="ni58W3g7qlgSycT5b25J-220" style="edgeStyle=orthogonalEdgeStyle;rounded=0;orthogonalLoop=1;jettySize=auto;html=1;exitX=1;exitY=0;exitDx=0;exitDy=0;entryX=0;entryY=1;entryDx=0;entryDy=0;curved=1;" parent="1" source="ni58W3g7qlgSycT5b25J-216" target="ni58W3g7qlgSycT5b25J-219" edge="1">
          <mxGeometry relative="1" as="geometry" />
        </mxCell>
        <mxCell id="ni58W3g7qlgSycT5b25J-221" value="=" style="edgeLabel;html=1;align=center;verticalAlign=middle;resizable=0;points=[];" parent="ni58W3g7qlgSycT5b25J-220" vertex="1" connectable="0">
          <mxGeometry x="-0.3826" y="3" relative="1" as="geometry">
            <mxPoint as="offset" />
          </mxGeometry>
        </mxCell>
        <mxCell id="ni58W3g7qlgSycT5b25J-216" value="q32&lt;div&gt;NOT&lt;/div&gt;" style="ellipse;whiteSpace=wrap;html=1;aspect=fixed;strokeColor=#00FF00;" parent="1" vertex="1">
          <mxGeometry x="218" y="474" width="80" height="80" as="geometry" />
        </mxCell>
        <mxCell id="ni58W3g7qlgSycT5b25J-219" value="q33&lt;div&gt;not_equal&lt;/div&gt;" style="ellipse;whiteSpace=wrap;html=1;aspect=fixed;strokeColor=#00FF00;" parent="1" vertex="1">
          <mxGeometry x="317" y="374" width="80" height="80" as="geometry" />
        </mxCell>
        <mxCell id="ni58W3g7qlgSycT5b25J-227" style="edgeStyle=orthogonalEdgeStyle;rounded=0;orthogonalLoop=1;jettySize=auto;html=1;exitX=1;exitY=1;exitDx=0;exitDy=0;entryX=0.5;entryY=0;entryDx=0;entryDy=0;curved=1;" parent="1" source="ni58W3g7qlgSycT5b25J-222" target="ni58W3g7qlgSycT5b25J-225" edge="1">
          <mxGeometry relative="1" as="geometry" />
        </mxCell>
        <mxCell id="ni58W3g7qlgSycT5b25J-228" value="=" style="edgeLabel;html=1;align=center;verticalAlign=middle;resizable=0;points=[];" parent="ni58W3g7qlgSycT5b25J-227" vertex="1" connectable="0">
          <mxGeometry x="-0.296" y="-2" relative="1" as="geometry">
            <mxPoint as="offset" />
          </mxGeometry>
        </mxCell>
        <mxCell id="ni58W3g7qlgSycT5b25J-222" value="q34&lt;div&gt;greater&lt;/div&gt;" style="ellipse;whiteSpace=wrap;html=1;aspect=fixed;strokeColor=#00FF00;" parent="1" vertex="1">
          <mxGeometry x="138" y="528" width="80" height="80" as="geometry" />
        </mxCell>
        <mxCell id="ni58W3g7qlgSycT5b25J-225" value="q35&lt;div&gt;greater_equal&lt;/div&gt;" style="ellipse;whiteSpace=wrap;html=1;aspect=fixed;strokeColor=#00FF00;" parent="1" vertex="1">
          <mxGeometry x="226" y="639" width="80" height="80" as="geometry" />
        </mxCell>
        <mxCell id="ni58W3g7qlgSycT5b25J-234" style="edgeStyle=orthogonalEdgeStyle;rounded=0;orthogonalLoop=1;jettySize=auto;html=1;exitX=0.5;exitY=1;exitDx=0;exitDy=0;entryX=0.5;entryY=0;entryDx=0;entryDy=0;curved=1;" parent="1" source="ni58W3g7qlgSycT5b25J-229" target="ni58W3g7qlgSycT5b25J-233" edge="1">
          <mxGeometry relative="1" as="geometry" />
        </mxCell>
        <mxCell id="ni58W3g7qlgSycT5b25J-235" value="=" style="edgeLabel;html=1;align=center;verticalAlign=middle;resizable=0;points=[];" parent="ni58W3g7qlgSycT5b25J-234" vertex="1" connectable="0">
          <mxGeometry x="0.0476" y="1" relative="1" as="geometry">
            <mxPoint as="offset" />
          </mxGeometry>
        </mxCell>
        <mxCell id="ni58W3g7qlgSycT5b25J-229" value="q36&lt;div&gt;less&lt;/div&gt;" style="ellipse;whiteSpace=wrap;html=1;aspect=fixed;strokeColor=#00FF00;" parent="1" vertex="1">
          <mxGeometry x="53" y="501" width="80" height="80" as="geometry" />
        </mxCell>
        <mxCell id="ni58W3g7qlgSycT5b25J-233" value="q37&lt;div&gt;less_equal&lt;/div&gt;" style="ellipse;whiteSpace=wrap;html=1;aspect=fixed;strokeColor=#00FF00;" parent="1" vertex="1">
          <mxGeometry x="92" y="619" width="80" height="80" as="geometry" />
        </mxCell>
        <mxCell id="ni58W3g7qlgSycT5b25J-241" style="edgeStyle=orthogonalEdgeStyle;rounded=0;orthogonalLoop=1;jettySize=auto;html=1;exitX=0.5;exitY=1;exitDx=0;exitDy=0;entryX=0.5;entryY=0;entryDx=0;entryDy=0;curved=1;" parent="1" source="ni58W3g7qlgSycT5b25J-237" target="ni58W3g7qlgSycT5b25J-240" edge="1">
          <mxGeometry relative="1" as="geometry">
            <Array as="points">
              <mxPoint x="13" y="504" />
              <mxPoint x="-25" y="504" />
            </Array>
          </mxGeometry>
        </mxCell>
        <mxCell id="ni58W3g7qlgSycT5b25J-242" value="=" style="edgeLabel;html=1;align=center;verticalAlign=middle;resizable=0;points=[];" parent="ni58W3g7qlgSycT5b25J-241" vertex="1" connectable="0">
          <mxGeometry x="-0.1323" y="-1" relative="1" as="geometry">
            <mxPoint as="offset" />
          </mxGeometry>
        </mxCell>
        <mxCell id="ni58W3g7qlgSycT5b25J-237" value="q38&lt;div&gt;bitwise_not&lt;/div&gt;" style="ellipse;whiteSpace=wrap;html=1;aspect=fixed;strokeColor=#00FF00;" parent="1" vertex="1">
          <mxGeometry x="-27" y="411" width="80" height="80" as="geometry" />
        </mxCell>
        <mxCell id="ni58W3g7qlgSycT5b25J-240" value="q39&lt;div&gt;bitwise_not_equal&lt;/div&gt;" style="ellipse;whiteSpace=wrap;html=1;aspect=fixed;strokeColor=#00FF00;" parent="1" vertex="1">
          <mxGeometry x="-65" y="516" width="80" height="80" as="geometry" />
        </mxCell>
      </root>
    </mxGraphModel>
  </diagram>
</mxfile>
